<svg xmlns="http://www.w3.org/2000/svg" viewBox="0 0 100 26" class="w_100 h_26 fill_none"><path d="M31.7624 1.44503L31.3385 4.08522C31.1648 5.17307 30.2258 5.97322 29.1251 5.97322H24.6997L25.1236 3.33302C25.2973 2.24518 26.2363 1.44503 27.337 1.44503H31.7624ZM28.0513 8.23731H24.3373L22.1374 21.9657C21.9202 23.3248 22.9685 24.5565 24.3448 24.5565H28.0588L30.2588 10.8281C30.4759 9.469 29.4276 8.23731 28.0513 8.23731ZM12.743 1.42705H3.70504L3.39204 3.38397C3.17489 4.74152 4.2232 5.97172 5.59649 5.97172H10.892C12.9137 5.97172 14.4547 7.7803 14.1342 9.77767C13.8168 11.7601 12.108 13.2165 10.1012 13.2165H9.31351H8.15287H3.72001C2.62378 13.2165 1.68928 14.0137 1.51556 15.097L0 24.5385H4.43736C5.5306 24.5385 6.46359 23.7443 6.63582 22.664L7.42355 17.7462H11.7381C16.0332 17.7462 19.6918 14.625 20.3717 10.383C21.125 5.68552 17.4978 1.42705 12.743 1.42705ZM79.2839 1.44353H73.2216C72.4848 1.44353 71.7959 1.81064 71.3841 2.42199L66.9947 8.94006L64.8756 2.93594C64.5596 2.04289 63.7164 1.44503 62.7685 1.44503H57.1076L53.8204 21.9507C53.6032 23.3083 54.6515 24.54 56.0263 24.54H59.7418L61.7471 12.0268L62.8358 15.1135L63.2971 16.4186C63.6011 17.2787 64.311 17.959 65.2035 18.1448C66.2429 18.3621 67.2807 17.923 67.8543 17.0719L69.1736 15.1135L71.2523 12.0268L69.247 24.54H73.6949C74.7836 24.54 75.7106 23.7488 75.8828 22.6745L79.2839 1.44503V1.44353ZM52.7062 6.3673L53.4879 1.44353H42.4447C38.3757 1.44353 34.9103 4.39989 34.2648 8.41862L33.218 14.9532C32.4108 19.9893 36.2986 24.5535 41.3979 24.5535C46.2291 24.5535 50.346 21.0427 51.1112 16.2688L51.3344 14.8768C51.55 13.5297 50.5107 12.3085 49.1464 12.3085H42.6933L42.1242 15.8627C42.0418 16.3737 42.4372 16.8367 42.9538 16.8367H43.6967C44.2133 16.8367 44.6087 17.2997 44.5263 17.8106C44.2822 19.3315 42.9748 20.4508 41.4383 20.4583C39.9841 20.4658 38.8819 19.1397 39.1125 17.7028L40.6416 8.16239C40.8962 6.57707 42.3054 5.4278 43.9273 5.5192C45.1643 5.58962 46.1108 6.66099 46.1108 7.90167C46.1108 8.08447 46.259 8.23132 46.4402 8.23132H50.5182C51.6069 8.23132 52.5354 7.43866 52.7062 6.3628V6.3673ZM93.7476 1H89.1739C85.6037 1 82.5621 3.59374 81.9975 7.121L80.2932 17.7552C79.6837 21.5567 82.619 25 86.4663 25H91.0399C94.6102 25 97.6518 22.4063 98.2164 18.879L99.9206 8.2448C100.53 4.44334 97.5949 1 93.7476 1ZM93.5843 8.2448L92.0493 17.8226C91.8052 19.348 90.4888 20.4703 88.9433 20.4703C87.5011 20.4703 86.4004 19.1787 86.628 17.7537L88.1631 8.17588C88.4072 6.6505 89.7236 5.52819 91.2691 5.52819C92.7113 5.52819 93.812 6.81982 93.5843 8.2448Z" fill="url(#logo-gradient)"></path><defs><linearGradient id="logo-gradient" x1="0" y1="13" x2="40.5509" y2="76.504" gradientUnits="userSpaceOnUse"><stop stop-color="#E90083"></stop><stop offset="1" stop-color="#FF6864"></stop></linearGradient></defs></svg>